PathFileType	4	(X/Y/Z)	RBDS03\RBDS03runT35.trc
DataRate	CameraRate	NumFrames	NumMarkers	Units	OrigDataRate	OrigDataStartFrame	OrigNumFrames
150.000000	150.000000	5	33	mm	150.000000	1125	4500
Frame#	Time	L.ASIS			L.Heel.Bottom			L.Heel.Lateral			L.Heel.Top			L.Iliac.Crest			L.MT1			L.MT5			L.PSIS			L.Shank.Bottom.Lateral			L.Shank.Bottom.Medial			L.Shank.Top.Lateral			L.Shank.Top.Medial			L.Thigh.Bottom.Lateral			L.Thigh.Bottom.Medial			L.Thigh.Top.Lateral			L.Thigh.Top.Medial			R.ASIS			R.ASY			R.Heel.Bottom			R.Heel.Lateral			R.Heel.Top			R.Iliac.Crest			R.MT1			R.MT5			R.PSIS			R.Shank.Bottom.Lateral			R.Shank.Bottom.Medial			R.Shank.Top.Lateral			R.Shank.Top.Medial			R.Thigh.Bottom.Lateral			R.Thigh.Bottom.Medial			R.Thigh.Top.Lateral			R.Thigh.Top.Medial			
		X1	Y1	Z1	X2	Y2	Z2	X3	Y3	Z3	X4	Y4	Z4	X5	Y5	Z5	X6	Y6	Z6	X7	Y7	Z7	X8	Y8	Z8	X9	Y9	Z9	X10	Y10	Z10	X11	Y11	Z11	X12	Y12	Z12	X13	Y13	Z13	X14	Y14	Z14	X15	Y15	Z15	X16	Y16	Z16	X17	Y17	Z17	X18	Y18	Z18	X19	Y19	Z19	X20	Y20	Z20	X21	Y21	Z21	X22	Y22	Z22	X23	Y23	Z23	X24	Y24	Z24	X25	Y25	Z25	X26	Y26	Z26	X27	Y27	Z27	X28	Y28	Z28	X29	Y29	Z29	X30	Y30	Z30	X31	Y31	Z31	X32	Y32	Z32	X33	Y33	Z33	

1126	7.500000000000001	2380.999167390776	1072.639698823448	973.2887079868119	1660.106333898963	542.077671202179	1023.283697934196	1656.589390571362	507.4442180726136	975.6253061633959	1706.381894686612	526.2966085105205	1010.125623141419	2319.883091699477	1147.196990995043	924.5418538810136	1669.722180275126	315.8448643407496	1059.988185175183	1629.440034225339	351.2158533660867	963.6262767059607	2206.239038679703	1108.600434383598	1020.81346064348	1781.743260721368	489.3653738503813	951.0651090974908	1771.977730750225	523.0772098358387	993.1328866774745	1853.647931915886	523.5108638709693	940.4252911142451	1844.247314057302	557.9950089479853	980.6103386370198	2171.170087238058	647.6276316657137	928.0479477198114	2119.285459938204	671.4276633211633	974.7907044948298	2203.023430104879	751.3737007645693	910.9352750738063	2148.766202005302	775.3116603037096	949.8483006362253	2351.777472181984	1080.080571973792	1181.416960204697	1286750009.616212	-34044457.44181336	-112387443.3782092	2429.230334964415	39.73411521833988	1072.306325435165	2452.363735035061	61.7498254423596	1125.757227180828	2422.835612896979	87.90284657736838	1080.444189699778	2287.708350573174	1154.922757870554	1220.969803303703	2629.006813900374	122.5327606962574	1063.289979616182	2600.869426345181	88.93693552783816	1171.220532096768	2196.884357606635	1109.898691584085	1105.603893848716	2443.450965230143	185.0533225865482	1149.25543326146	2410.960154237071	185.7795161269555	1108.26561225761	2414.803362334078	262.3345414769166	1169.603463959558	2383.721578975089	259.9845295538015	1125.890554830847	2363.400109560501	651.4258365108132	1212.179964151693	2305.218998345735	634.5971390877198	1171.695590333253	2320.274024798306	752.1266962917922	1230.44071055628	2266.554876803328	735.2562785731653	1192.64535654234	
1127	7.506666666666667	2380.091988319742	1068.229457128775	972.9130843566728	1673.493719600249	555.3282028396503	1022.356294938851	1667.09514167881	521.062477930128	974.6318193970774	1718.407980150345	536.4823230836455	1008.40339156927	2318.908588551842	1142.456873231552	923.804453993541	1668.61722795634	328.9856594458142	1058.547307808823	1629.544663588767	367.071343986099	962.7975357749897	2204.994167288641	1102.211580406867	1019.283545332392	1789.913487041678	496.1189730085691	949.338712157927	1781.725642134209	530.0653324120339	991.5094923975309	1863.20995198158	527.0279684928094	938.6865454607306	1855.475304070495	561.653944604976	978.9994708260041	2179.707962657455	639.0367568970248	926.7059517626637	2127.789222135018	661.5012968145631	974.1544258044767	2209.051561575277	743.580039821104	909.7763361404986	2154.714790701184	766.1843597071833	949.4566883206899	2350.283570665636	1076.471891739562	1181.709642486213	1292156968.30698	-34186930.04156265	-112859214.2018501	2415.382470894778	36.58718385243579	1071.966995370575	2440.146079981649	58.28275436600726	1124.750325468316	2410.671166025391	84.82574102305239	1079.650444767497	2285.623023899758	1150.928443165319	1220.789367193957	2616.551104266201	113.1793210249482	1058.878633181453	2589.610881898969	81.448039012424	1167.644801975072	2195.198095563193	1104.189053133271	1104.067744146876	2434.975997453754	179.8227590667946	1147.857746869555	2401.627856728844	181.3150465145166	1107.697665295702	2408.623185618015	257.7060058484965	1168.82346008996	2376.652691549743	256.0467008907533	1125.690904349332	2363.709603653421	647.8850257254896	1210.937636471322	2305.204807041503	630.6944157687042	1171.130943408977	2320.35643946055	748.4690541606753	1229.189426201032	2266.314908681522	731.1709258518208	1192.030872253861	
1128	7.513333333333334	2378.882798723821	1063.22872512351	972.60227480625	1688.423804161815	567.1969010252545	1021.362719583314	1679.256846701754	533.5288645075115	973.5198481923011	1731.865844546304	545.4328402327983	1006.707186446854	2317.82281947339	1137.152688549563	923.0256584913707	1669.33479862774	341.5028980283693	1056.791812870347	1631.713591345418	382.3281951701437	961.5975986375249	2203.535315245893	1095.458708225629	1017.729528322068	1799.419551027478	501.9853024761824	947.5287478625199	1792.742432385871	536.167475370801	989.7304318875513	1873.929019393516	529.6465011759866	936.8344956698016	1867.789870926073	564.4105190445891	977.198201355128	2188.553113027664	630.068370429415	925.356048269174	2136.468438948521	651.1522209685852	973.3068939140983	2215.259195446542	735.3630268794795	908.5420161054999	2160.700921726685	756.5809482988465	948.7194921444002	2348.648279800552	1072.481806431813	1182.045398819989	1297579052.649905	-34329799.53895412	-113332303.4005641	2399.023692624699	33.92334955196918	1071.637244940955	2425.57415915691	55.23753833890534	1123.680354262424	2396.38130363168	82.23609333665259	1078.697363907218	2283.200755086537	1146.576288362614	1220.538395649609	2602.070403630118	102.8118292808413	1054.381007670477	2576.155120159776	73.43716290531168	1164.054242327748	2193.317522620087	1098.08025671462	1102.504436519314	2425.093129739794	174.4618911239853	1146.223688476515	2390.937980894007	177.0222994258635	1106.947311523289	2401.548339022153	253.0121733073603	1167.886750126002	2368.697053476503	252.3441507144905	1125.385584727193	2364.71270295538	644.1570139690177	1209.907152623297	2305.909216711838	626.469304107559	1170.807608407035	2320.928536673833	744.4872301323483	1228.25570712407	2266.55644663354	726.6840677691497	1191.74033431217	
1129	7.52	2377.34915817349	1057.673157645432	972.3452993487225	1704.588609115445	577.6485330764604	1020.23656187329	1692.875643406848	544.7345222562504	972.2322594651811	1746.520762020522	553.1681048292293	1005.036170793485	2316.577400471449	1131.296882570419	922.189868761845	1671.897974080182	353.2562549234468	1054.754091534332	1636.002284224073	396.7142501028712	959.9936078613406	2201.83201060418	1088.424906379216	1016.217156005756	1810.179928833042	506.9613732028942	945.6572619889076	1804.950017813572	541.3923916731853	987.8230562627592	1885.732070692143	531.3902203485977	934.8970410745828	1881.113727416385	566.3048375790822	975.2378525873429	2197.762574445269	620.8135397852697	923.9992533589619	2145.340260697424	640.4558617316169	972.194618421393	2221.687231203648	726.8098973690177	907.2397823825752	2166.740332990822	746.5654150702437	947.5966211313905	2346.868267604992	1068.082983690012	1182.369525291503	1303016283.772038	-34473066.48600838	-113806712.8138866	2380.596555667568	31.86962033356834	1071.275269782397	2408.973214320852	52.79845234159836	1122.534016452005	2380.281412758342	80.2426021922936	1077.533413395258	2280.494121020814	1141.7621413323	1220.207304101198	2585.835563398938	92.0542687600999	1050.01967778173	2560.71548773159	65.45470173318363	1160.611514467088	2191.236867427221	1091.632938516512	1100.970630094611	2413.998873562451	169.2219216853476	1144.329345904743	2379.102436810918	173.1243826200947	1105.98799623596	2393.712944507969	248.4389927503918	1166.752583818946	2360.001890274475	249.0464716329669	1124.945088535041	2366.235799952236	640.2450637853784	1209.092540538426	2307.175726161885	621.9726270472029	1170.679684533725	2321.856294011793	740.2014858264101	1227.655964557504	2267.162866093756	721.8578900089668	1191.750320354848	
1130	7.526666666666667	2375.466686496522	1051.618330250754	972.1251820456797	1721.663974938054	586.6936732448032	1018.914391119643	1707.732427030975	554.5974164175975	970.7174228198137	1762.126395334834	559.7486742895684	1003.385248897167	2315.108226270273	1124.90686829688	921.2850646903503	1676.311970127919	364.1119831888476	1052.476002240163	1642.428503822231	409.9484765147857	957.9699958744553	2199.847636765121	1081.197714369578	1014.812993402826	1822.108247446792	511.0629785058873	943.7492839103495	1818.264165578762	545.7645544174158	985.8177331015772	1898.542898630896	532.3080535646307	932.9076753842836	1895.367659679112	567.3993591412145	973.1572750715092	2207.394118667501	611.401006843865	922.6397635974556	2154.439429351251	629.5212563032325	970.7875851007378	2228.37644691821	718.0454222887474	905.8866403331996	2172.865721746842	736.2344836311668	946.0832333411142	2344.929894220949	1063.269116562451	1182.622984116341	1308468682.800429	-34616731.43474602	-114282444.2813528	2360.554626821152	30.50854835928225	1070.844585502173	2390.685153958773	51.10049241090257	1121.306397040746	2362.684866445436	78.91191434495217	1076.131882896929	2277.590766122294	1136.397338512324	1219.803464108885	2568.110492647835	81.54009735435557	1045.997351335726	2543.523781064378	58.01890525843604	1157.452650277836	2188.940698240322	1084.922686305812	1099.521923326453	2401.875373720698	164.3613890321019	1142.173980116069	2366.315681149454	169.8393976504651	1104.812903387255	2385.228474969924	244.1834091220902	1165.399728449758	2350.692158314775	246.319875105663	1124.35490062625	2368.079268569888	636.1806979000697	1208.47914420797	2308.817381483658	617.2822184569185	1170.689556466225	2322.983192054074	735.6668281900525	1227.372811031559	2267.995302764103	716.784011689398	1192.009577407315	
